<svg width="16" height="16" viewBox="0 0 16 16" fill="none" xmlns="http://www.w3.org/2000/svg">
<path d="M14.833 6.63811L3.83799 2.56248L3.82799 2.55936C3.65102 2.49842 3.46049 2.48838 3.27808 2.53038C3.09568 2.57237 2.92872 2.66472 2.79621 2.79691C2.66369 2.9291 2.57093 3.09583 2.52849 3.27813C2.48605 3.46043 2.49562 3.65098 2.55612 3.82811C2.55688 3.83152 2.55793 3.83487 2.55924 3.83811L6.63799 14.8331C6.70498 15.0292 6.83204 15.1991 7.00112 15.3188C7.1702 15.4385 7.37271 15.5019 7.57987 15.5H7.59862C7.80987 15.4984 8.01502 15.4289 8.18381 15.3019C8.3526 15.1748 8.47611 14.9969 8.53612 14.7944L8.53987 14.7819L9.90487 9.90686L14.7799 8.54186L14.7924 8.53811C14.9934 8.47624 15.1699 8.35254 15.2966 8.18461C15.4233 8.01667 15.4938 7.81306 15.4981 7.60274C15.5023 7.39242 15.4402 7.1861 15.3205 7.01314C15.2007 6.84018 15.0295 6.70938 14.8311 6.63936L14.833 6.63811ZM9.36487 9.01873C9.28231 9.04191 9.20709 9.08593 9.14646 9.14657C9.08582 9.20721 9.0418 9.28242 9.01862 9.36498L7.58112 14.5L7.57737 14.4894L3.49987 3.49998L14.4886 7.57623L14.4986 7.57998L9.36487 9.01873Z" fill="#8E8E93"/>
</svg>
